<svg width="16" height="16" viewBox="0 0 16 16" fill="none" xmlns="http://www.w3.org/2000/svg">
    <rect width="16" height="16" fill="white"/>
    <path d="M11.739 6.53999C11.4285 9.5311 8.75213 11.7042 5.76102 11.3938C2.76991 11.0834 0.596772 8.407 0.907185 5.41589C1.2176 2.42477 3.89401 0.25164 6.88512 0.562053C9.87624 0.872466 12.0494 3.54888 11.739 6.53999ZM1.57795 5.4855C1.30598 8.10616 3.20997 10.4511 5.83063 10.7231C8.45129 10.995 10.7962 9.09104 11.0682 6.47038C11.3402 3.84972 9.43617 1.50478 6.81551 1.23282C4.19485 0.960848 1.84992 2.86484 1.57795 5.4855Z"
          fill="black"/>
    <path d="M9.17554 10.0893L13.5377 15.4617" stroke="black"/>
</svg>
